HIERARCHY
ROOT root
{
	OFFSET	0	13.1	24.9
	CHANNELS 6  Xposition Yposition Zposition Xrotation Yrotation Zrotation
	JOINT spine_1
	{
		OFFSET	0	9.99999	0
		CHANNELS 3  Xrotation Yrotation Zrotation
		JOINT spine_2
		{
			OFFSET	0	112	-10
			CHANNELS 3  Xrotation Yrotation Zrotation
			JOINT spine_3
			{
				OFFSET	0	206.5	19.3
				CHANNELS 3  Xrotation Yrotation Zrotation
				JOINT spine_4
				{
					OFFSET	0	110.4	14.6
					CHANNELS 3  Xrotation Yrotation Zrotation
					JOINT neck_1
					{
						OFFSET	0	71.8	-50.3
						CHANNELS 3  Xrotation Yrotation Zrotation
						JOINT neck_2
						{
							OFFSET	0	86.2	-25.8
							CHANNELS 3  Xrotation Yrotation Zrotation
							JOINT head_ee
							{
								OFFSET	0	179.8	-8.7
								CHANNELS 3  Xrotation Yrotation Zrotation
								End Site
								{
									OFFSET	1	0	0
								}
							}
						}
					}
					JOINT left_clavicle
					{
						OFFSET	-43.2	22.4	-70.8
						CHANNELS 3  Xrotation Yrotation Zrotation
						JOINT left_shoulder
						{
							OFFSET	-93.9	-5.79999	48.7
							CHANNELS 3  Xrotation Yrotation Zrotation
							JOINT left_elbow
							{
								OFFSET	-291.4	-30.8	15.2
								CHANNELS 3  Xrotation Yrotation Zrotation
								JOINT left_lowarm_twist
								{
									OFFSET	-110.7	-3.89999	13.6
									CHANNELS 3  Xrotation Yrotation Zrotation
									JOINT left_hand
									{
										OFFSET	-110.7	-3.89999	13.6
										CHANNELS 3  Xrotation Yrotation Zrotation
										JOINT left_ee
										{
											OFFSET	-80.8	-5.10001	12.1
											CHANNELS 3  Xrotation Yrotation Zrotation
											End Site
											{
												OFFSET	1	0	0
											}
										}
									}
								}
							}
						}
					}
					JOINT right_clavicle
					{
						OFFSET	43.2	22.4	-70.8
						CHANNELS 3  Xrotation Yrotation Zrotation
						JOINT right_shoulder
						{
							OFFSET	93.9	-5.79999	48.7
							CHANNELS 3  Xrotation Yrotation Zrotation
							JOINT right_elbow
							{
								OFFSET	291.4	-30.8	15.2
								CHANNELS 3  Xrotation Yrotation Zrotation
								JOINT right_lowarm_twist
								{
									OFFSET	110.7	-3.89999	13.6
									CHANNELS 3  Xrotation Yrotation Zrotation
									JOINT right_hand
									{
										OFFSET	110.7	-3.89999	13.6
										CHANNELS 3  Xrotation Yrotation Zrotation
										JOINT right_ee
										{
											OFFSET	80.8	-5.10001	12.1
											CHANNELS 3  Xrotation Yrotation Zrotation
											End Site
											{
												OFFSET	1	0	0
											}
										}
									}
								}
							}
						}
					}
				}
			}
		}
	}
	JOINT left_hip
	{
		OFFSET	-82.8	-127.5	0.300001
		CHANNELS 3  Xrotation Yrotation Zrotation
		JOINT left_knee
		{
			OFFSET	-28.2	-396.7	2.2
			CHANNELS 3  Xrotation Yrotation Zrotation
			JOINT left_ankle
			{
				OFFSET	-11.7	-411.3	35.4
				CHANNELS 3  Xrotation Yrotation Zrotation
				JOINT left_toes
				{
					OFFSET	0	-60	-88.6
					CHANNELS 3  Xrotation Yrotation Zrotation
					JOINT left_foot_ee
					{
						OFFSET	-22.5	-16.5	-42.2
						CHANNELS 3  Xrotation Yrotation Zrotation
						End Site
						{
							OFFSET	1	0	0
						}
					}
				}
			}
		}
	}
	JOINT right_hip
	{
		OFFSET	82.8	-127.5	0.300001
		CHANNELS 3  Xrotation Yrotation Zrotation
		JOINT right_knee
		{
			OFFSET	28.2	-396.7	2.2
			CHANNELS 3  Xrotation Yrotation Zrotation
			JOINT right_ankle
			{
				OFFSET	11.7	-411.3	35.4
				CHANNELS 3  Xrotation Yrotation Zrotation
				JOINT right_toes
				{
					OFFSET	0	-60	-88.6
					CHANNELS 3  Xrotation Yrotation Zrotation
					JOINT right_foot_ee
					{
						OFFSET	22.5	-16.5	-42.2
						CHANNELS 3  Xrotation Yrotation Zrotation
						End Site
						{
							OFFSET	1	0	0
						}
					}
				}
			}
		}
	}
}
MOTION
Frames: 11
Frame Time: 0.02
2164.35 723.481 -1578.93 1.98571 71.9601 -7.63195 1.38802 0.703531 4.22565 1.39784 0.433467 4.26176 1.43158 -0.365687 4.2681 1.4063 0.312336 4.27232 -11.8023 12.7539 -4.01373 -12.1481 26.7467 -0.180536 -0.0 0.0 -0.0 -9.07836 23.9388 -9.77674 -17.752 -24.7627 73.5172 0.517103 -14.368 0.0651791 -13.5815 -0.67135 1.59747 1.15855 0.56412 7.99012 -0.0 0.0 -0.0 12.4296 18.1382 -25.0421 -1.39415 21.811 -71.2226 2.02402 45.0703 -0.839905 14.2548 -0.280282 1.79468 1.46161 6.47761 -7.13339 0.0 0.0 0.0 6.2762 32.743 -8.65109 -7.80194 0.241733 1.17204 26.7656 -18.7061 -3.90151 -37.4583 0.0 0.0 -0.0 0.0 -0.0 7.17661 18.6266 -2.718 -9.70383 -0.276295 -1.46183 39.8096 -13.0605 4.88934 0.0421151 -0.0 -0.0 0.0 0.0 0.0 
2159.27 723.054 -1577.41 1.84367 71.6006 -7.45562 1.40444 0.616956 4.25653 1.41445 0.345106 4.28708 1.44162 -0.456717 4.27665 1.41618 0.223789 4.29511 -12.2145 12.6678 -3.81482 -12.5919 26.4631 0.0891797 -0.0 0.0 -0.0 -8.7039 23.7737 -9.30022 -18.0899 -24.3923 73.3168 0.473293 -13.1952 0.0547421 -13.4486 -0.662968 1.58266 1.09556 0.804365 7.66306 -0.0 0.0 -0.0 12.3637 17.9281 -24.9017 -1.57026 22.656 -71.7299 2.05438 45.4967 -0.861479 14.6815 -0.281742 1.84916 1.42671 6.02143 -7.08892 0.0 0.0 0.0 6.92803 32.6957 -8.88706 -9.61184 0.274846 1.44779 26.9619 -18.3492 -3.91395 -37.9422 0.0 0.0 -0.0 0.0 -0.0 7.06927 20.029 -2.55388 -9.73182 -0.276732 -1.4661 39.8479 -11.83 4.87913 0.865166 -0.0 -0.0 0.0 0.0 0.0 
2156.84 727.099 -1573.91 0.233477 70.9902 -5.51694 1.46613 0.690552 4.27097 1.47618 0.417638 4.30617 1.50885 -0.38373 4.30931 1.48307 0.30101 4.31587 -11.9933 12.0788 -5.89708 -12.2924 26.6695 -2.15824 -0.0 0.0 -0.0 -8.45844 23.8622 -8.91399 -16.9423 -24.033 73.7362 0.42256 -11.8229 0.0437528 -13.3596 -0.657376 1.57274 1.09562 -1.61627 6.67758 -0.0 0.0 -0.0 12.2702 17.4118 -24.7141 -2.40803 22.874 -71.9697 2.0758 45.7936 -0.876797 13.9812 -0.279133 1.75975 1.19114 5.09779 -5.87871 0.0 0.0 0.0 7.13618 32.796 -8.63146 -9.076 0.26595 1.36604 27.1453 -17.6705 -3.91501 -37.7954 0.0 0.0 -0.0 0.0 -0.0 7.17217 20.0434 -2.90611 -7.84762 -0.242676 -1.17899 36.9784 -15.0672 4.65293 2.3229 -0.0 -0.0 0.0 0.0 0.0 
2155.58 730.051 -1571.67 -0.7271 70.2871 -4.24707 1.46828 0.766389 4.24684 1.47817 0.494853 4.2869 1.51656 -0.303482 4.30465 1.49091 0.379522 4.29863 -11.944 11.9284 -5.86853 -12.2298 26.3679 -2.19054 -0.0 0.0 -0.0 -8.26556 24.0055 -8.58536 -16.2585 -23.2811 72.9259 0.471432 -13.1451 0.0543178 -12.7778 -0.6212 1.50767 1.02634 -1.11683 6.41516 -0.0 0.0 -0.0 12.2757 17.5844 -24.7177 -2.19089 22.9186 -71.9337 1.987 44.5418 -0.813816 13.4753 -0.276567 1.69518 0.985188 3.00255 -5.3596 0.0 0.0 0.0 7.79015 32.8148 -9.10466 -9.78436 0.277546 1.47412 27.4975 -17.4546 -3.9504 -38.0936 0.0 0.0 -0.0 0.0 -0.0 7.51835 21.1213 -3.01915 -8.46492 -0.254873 -1.27293 35.8202 -14.976 4.53918 2.93669 -0.0 -0.0 0.0 0.0 0.0 
2149.3 729.38 -1570.33 -0.630088 69.9645 -4.11293 1.51685 0.781237 4.21535 1.52659 0.511669 4.25642 1.56584 -0.277593 4.27802 1.54053 0.400894 4.26825 -12.5426 12.0722 -5.09818 -12.8998 26.1426 -1.25064 -0.0 0.0 -0.0 -8.48142 24.1078 -8.85517 -15.0478 -22.4688 72.2824 0.530425 -14.7223 0.0685249 -12.4455 -0.600839 1.47034 1.23201 -2.18255 7.36686 -0.0 0.0 -0.0 12.2712 17.2108 -24.7265 -2.68902 22.9263 -72.2497 1.89319 43.158 -0.74882 13.2101 -0.274996 1.66135 0.704726 1.88134 -3.9351 0.0 0.0 0.0 7.22242 32.9668 -9.20588 -10.2535 0.284491 1.54577 27.3293 -17.0474 -3.91827 -38.6582 0.0 0.0 -0.0 0.0 -0.0 7.8598 22.1722 -3.56898 -9.54474 -0.273773 -1.43754 34.4074 -15.6953 4.40773 4.51933 -0.0 -0.0 0.0 0.0 0.0 
2144.51 726.515 -1569.68 0.438443 69.583 -4.91003 1.57766 0.956129 4.16638 1.58705 0.689317 4.21865 1.63907 -0.0900543 4.27354 1.61407 0.585386 4.23429 -12.6075 11.457 -5.49685 -12.9235 25.2254 -1.81732 -0.0 0.0 -0.0 -8.14278 23.6847 -8.52662 -14.4518 -21.9278 70.5462 0.661449 -18.1421 0.105606 -11.7738 -0.560339 1.39453 1.09642 -2.43514 6.34579 -0.0 0.0 -0.0 12.2308 16.8304 -24.6521 -2.437 22.2507 -73.1906 1.69634 40.0376 -0.618087 12.7501 -0.271896 1.60267 0.19648 -2.84041 -2.4938 0.0 0.0 0.0 6.8969 33.1429 -9.63834 -10.7036 0.290601 1.61457 29.4517 -16.9781 -4.16308 -38.8167 0.0 0.0 -0.0 0.0 -0.0 7.29424 23.8043 -4.04789 -9.98306 -0.280559 -1.50446 31.9312 -14.8915 4.14127 6.53464 -0.0 -0.0 0.0 0.0 0.0 
2137.44 723.195 -1566.53 1.66296 69.6413 -5.95842 1.69222 0.945477 4.11024 1.70135 0.682249 4.16195 1.75184 -0.0783765 4.21667 1.72752 0.587961 4.17629 -12.5261 11.4115 -5.03299 -12.8383 24.8491 -1.40614 -0.0 0.0 -0.0 -7.98006 24.1614 -8.12369 -13.763 -21.4692 69.3735 0.776118 -21.03 0.144057 -11.4364 -0.540334 1.35628 1.08762 -1.92952 6.49476 -0.0 0.0 -0.0 12.2889 16.116 -24.8176 -3.45375 21.5081 -73.1744 1.58857 38.1975 -0.550085 12.3941 -0.269176 1.55729 -0.315606 -5.63554 -0.287554 0.0 0.0 0.0 7.01921 32.8644 -10.3528 -13.1188 0.314147 1.98437 30.758 -16.9648 -4.30957 -37.7971 0.0 0.0 -0.0 0.0 -0.0 6.86603 25.7605 -4.2487 -12.2676 -0.307627 -1.85393 31.3776 -15.2 4.08593 8.69435 -0.0 -0.0 0.0 0.0 0.0 
2128.83 722.881 -1565.51 2.86513 69.366 -6.82787 1.67893 0.765478 3.94652 1.68745 0.513004 3.98714 1.72388 -0.215722 4.01418 1.70165 0.42043 3.99795 -12.4222 11.8294 -4.39089 -12.7589 25.2383 -0.680682 -0.0 0.0 -0.0 -8.36173 23.1593 -9.03434 -11.5769 -21.4375 69.4254 1.05051 -27.4914 0.256982 -10.8912 -0.508487 1.29422 1.08255 -1.40352 6.67672 -0.0 0.0 -0.0 12.3861 17.6886 -24.9666 -5.28805 21.1303 -72.8166 1.56396 37.7636 -0.534936 11.3429 -0.259495 1.42336 -0.478831 -7.05973 0.173854 0.0 0.0 0.0 7.47858 32.7848 -11.3475 -16.7889 0.320048 2.54733 31.5304 -16.023 -4.36503 -37.2184 0.0 0.0 -0.0 0.0 -0.0 5.7078 27.7809 -3.9462 -13.2512 -0.314987 -2.00467 31.8554 -15.3382 4.13843 12.4147 -0.0 -0.0 0.0 0.0 0.0 
2121.59 725.014 -1564.0 3.2394 68.938 -7.12811 1.6365 0.811755 4.03971 1.64541 0.553273 4.08308 1.68574 -0.196117 4.11567 1.6624 0.455781 4.09509 -12.4568 11.488 -4.91836 -12.7697 24.9229 -1.28806 -0.0 0.0 -0.0 -7.25153 23.6451 -7.26972 -10.304 -20.789 66.5883 1.07427 -28.0195 0.268048 -10.7556 -0.500656 1.27873 1.12189 -2.50858 6.48763 -0.0 0.0 -0.0 12.1979 16.5759 -24.5884 -6.71552 20.1258 -73.7509 1.53301 37.2108 -0.516103 11.6395 -0.262475 1.46112 -0.90559 -9.20977 2.00625 0.0 0.0 0.0 6.4767 32.7675 -11.0645 -17.4131 0.317463 2.64308 31.4366 -16.2302 -4.36119 -36.5727 0.0 0.0 -0.0 0.0 -0.0 5.37958 27.5066 -4.03454 -13.8082 -0.318006 -2.09008 31.3545 -15.7671 4.09019 12.4896 -0.0 -0.0 0.0 0.0 0.0 
2121.2 723.811 -1556.79 3.40278 68.8082 -6.97252 1.6814 0.691655 3.81414 1.68938 0.447734 3.85035 1.7201 -0.255575 3.86783 1.69941 0.358018 3.85971 -13.0294 11.0015 -5.10497 -13.3508 24.1066 -1.49115 -0.0 0.0 -0.0 -7.14784 23.4557 -7.18492 -8.68625 -20.8354 66.3637 1.0769 -28.0776 0.269283 -11.3915 -0.537689 1.35118 1.04977 -2.35554 6.06354 -0.0 0.0 -0.0 12.4296 19.2792 -24.9722 -7.9215 20.0105 -72.8768 1.36363 34.0372 -0.417405 12.2883 -0.268312 1.54379 -0.905731 -9.14086 2.03738 0.0 0.0 0.0 6.63817 33.1425 -11.1617 -18.5447 0.310119 2.81654 32.4253 -16.062 -4.46251 -36.2379 0.0 0.0 -0.0 0.0 -0.0 5.65537 27.7477 -4.06969 -14.363 -0.320188 -2.17516 30.6539 -16.197 4.01986 12.1383 -0.0 -0.0 0.0 0.0 0.0 
2110.1 723.292 -1555.04 4.46678 69.6489 -8.11454 1.66519 0.610645 3.92309 1.67368 0.359971 3.95393 1.69911 -0.362306 3.95372 1.6774 0.266153 3.96134 -12.3818 11.2688 -4.09195 -12.682 23.9865 -0.582513 -0.0 0.0 -0.0 -7.12456 23.4961 -7.13861 -7.91001 -21.6911 65.45 1.09595 -28.4967 0.278309 -11.7176 -0.556994 1.38817 1.03066 -1.32023 6.36086 -0.0 0.0 -0.0 11.9912 17.2077 -24.0836 -8.37545 19.2823 -73.1922 1.21404 31.0215 -0.33694 12.5293 -0.270242 1.57451 -0.978844 -9.58774 2.31088 0.0 0.0 0.0 5.55527 33.8176 -10.8415 -18.5904 0.30975 2.82355 32.5328 -15.8475 -4.46731 -35.795 0.0 0.0 -0.0 0.0 -0.0 5.8306 27.9381 -4.35627 -17.2611 -0.318189 -2.61977 29.9881 -16.4414 3.9501 13.453 -0.0 -0.0 0.0 0.0 0.0 
